<?xml version="1.0" encoding="UTF-8" standalone="no"?>
<!-- Created with Inkscape (http://www.inkscape.org/) -->

<svg
   xmlns:dc="http://purl.org/dc/elements/1.1/"
   xmlns:cc="http://creativecommons.org/ns#"
   xmlns:rdf="http://www.w3.org/1999/02/22-rdf-syntax-ns#"
   xmlns:svg="http://www.w3.org/2000/svg"
   xmlns="http://www.w3.org/2000/svg"
   xmlns:sodipodi="http://sodipodi.sourceforge.net/DTD/sodipodi-0.dtd"
   xmlns:inkscape="http://www.inkscape.org/namespaces/inkscape"
   width="194.96889mm"
   height="69.428299mm"
   viewBox="0 0 194.96889 69.428299"
   version="1.1"
   id="svg1743"
   inkscape:version="0.92.2 (5c3e80d, 2017-08-06)"
   sodipodi:docname="Logo AE Wave Hexapod - Short.svg">
  <defs
     id="defs1737" />
  <sodipodi:namedview
     id="base"
     pagecolor="#ffffff"
     bordercolor="#666666"
     borderopacity="1.0"
     inkscape:pageopacity="0.0"
     inkscape:pageshadow="2"
     inkscape:zoom="0.98994949"
     inkscape:cx="261.80226"
     inkscape:cy="93.505479"
     inkscape:document-units="mm"
     inkscape:current-layer="layer1"
     showgrid="false"
     inkscape:window-width="1920"
     inkscape:window-height="1017"
     inkscape:window-x="-8"
     inkscape:window-y="-8"
     inkscape:window-maximized="1" />
  <metadata
     id="metadata1740">
    <rdf:RDF>
      <cc:Work
         rdf:about="">
        <dc:format>image/svg+xml</dc:format>
        <dc:type
           rdf:resource="http://purl.org/dc/dcmitype/StillImage" />
        <dc:title></dc:title>
      </cc:Work>
    </rdf:RDF>
  </metadata>
  <g
     inkscape:label="Layer 1"
     inkscape:groupmode="layer"
     id="layer1"
     transform="translate(-210.94413,-157.20844)">
    <g
       id="g2398">
      <path
         inkscape:connector-curvature="0"
         style="display:inline;fill:#0091d1;fill-opacity:1;fill-rule:nonzero;stroke:none;stroke-width:0.21276285"
         d="m 249.05409,172.11876 v -9.78702 h 25.53155 l 8.44189,9.78702 h -21.27602 z"
         id="path982-5-2-5-5-4-9-3-7-2-8-9-4"
         inkscape:export-filename="C:\Vincent\Design\AE\Logo Iteration 8\Sub Company Logos\it8 - sub company logos - standard (light).png"
         inkscape:export-xdpi="96"
         inkscape:export-ydpi="96" />
      <path
         inkscape:connector-curvature="0"
         style="display:inline;fill:#0091d1;fill-opacity:1;fill-rule:nonzero;stroke:none;stroke-width:0.21276285"
         d="m 261.75151,174.9102 h 15.54005 l 0.0724,9.00427 h -15.6084 -8.45879 l -4.23863,-9.00427 z"
         id="path984-6-1-4-3-4-0-70-5-3-3-9-3"
         inkscape:export-filename="C:\Vincent\Design\AE\Logo Iteration 8\Sub Company Logos\it8 - sub company logos - standard (light).png"
         inkscape:export-xdpi="96"
         inkscape:export-ydpi="96" />
      <path
         inkscape:connector-curvature="0"
         style="display:inline;fill:#0091d1;fill-opacity:1;fill-rule:nonzero;stroke:none;stroke-width:0.21276285"
         d="m 254.72168,186.97795 4.59569,9.7873 h 15.11466 l 8.40814,-9.7873 h -21.12245 z"
         id="path986-8-9-9-1-6-0-40-6-5-8-2-6"
         inkscape:export-filename="C:\Vincent\Design\AE\Logo Iteration 8\Sub Company Logos\it8 - sub company logos - standard (light).png"
         inkscape:export-xdpi="96"
         inkscape:export-ydpi="96" />
      <path
         inkscape:connector-curvature="0"
         style="display:inline;fill:#0091d1;fill-opacity:1;fill-rule:nonzero;stroke:none;stroke-width:0.21276285"
         d="m 243.2329,196.76525 -1.78682,-4.64677 h -15.82956 l -1.9581,4.64677 h -12.71429 v -0.10226 l 16.11904,-34.33125 h 12.93544 l 16.11907,34.33125 0.0482,0.10226 z m -9.77035,-23.43805 -3.98294,9.95735 h 8.06797 z"
         id="path988-0-2-3-6-8-3-0-7-0-5-3-6"
         inkscape:export-filename="C:\Vincent\Design\AE\Logo Iteration 8\Sub Company Logos\it8 - sub company logos - standard (light).png"
         inkscape:export-xdpi="96"
         inkscape:export-ydpi="96" />
      <path
         inkscape:connector-curvature="0"
         style="display:inline;fill:#d2d2d2;fill-opacity:1;fill-rule:nonzero;stroke:none;stroke-width:0.21276285"
         d="m 276.35554,157.20844 h 9.87249 l 19.33559,22.09317 -19.37019,22.1443 h -9.83789 l 18.91024,-21.63358 z"
         id="path990-7-6-8-3-9-80-91-2-7-1-3-0"
         inkscape:export-filename="C:\Vincent\Design\AE\Logo Iteration 8\Sub Company Logos\it8 - sub company logos - standard (light).png"
         inkscape:export-xdpi="96"
         inkscape:export-ydpi="96" />
      <path
         inkscape:connector-curvature="0"
         style="display:inline;fill:#b3b3b3;fill-opacity:1;fill-rule:nonzero;stroke:none;stroke-width:0.21276285"
         d="m 292.28724,157.20844 h 9.87166 l 19.33642,22.09317 -19.35332,22.1443 h -9.85476 l 18.91021,-21.63358 z"
         id="path992-6-8-2-5-7-6-4-8-5-9-0-4"
         inkscape:export-filename="C:\Vincent\Design\AE\Logo Iteration 8\Sub Company Logos\it8 - sub company logos - standard (light).png"
         inkscape:export-xdpi="96"
         inkscape:export-ydpi="96" />
      <path
         inkscape:connector-curvature="0"
         style="display:inline;fill:#0091d1;fill-opacity:1;fill-rule:nonzero;stroke:none;stroke-width:0.21276285"
         d="m 308.06531,157.20844 h 9.87249 l 19.33559,22.09317 -51.33487,47.33513 41.03703,-46.82441 z"
         id="path994-1-8-4-6-5-7-62-9-7-7-7-7"
         inkscape:export-filename="C:\Vincent\Design\AE\Logo Iteration 8\Sub Company Logos\it8 - sub company logos - standard (light).png"
         inkscape:export-xdpi="96"
         inkscape:export-ydpi="96" />
      <path
         d="m 355.26093,193.70982 -3.44897,12.21196 h -1.67765 l -2.51221,-8.92474 q -0.1618,-0.5706 -0.19587,-1.24333 h -0.0341 q -0.0511,0.63012 -0.22141,1.22625 l -2.52925,8.94182 h -1.66061 l -3.57671,-12.21196 h 1.57545 l 2.59738,9.36759 q 0.1618,0.58759 0.20438,1.22633 h 0.0426 q 0.0426,-0.45139 0.26399,-1.22633 l 2.69957,-9.36759 h 1.37107 l 2.58885,9.43573 q 0.13626,0.48538 0.20439,1.14112 h 0.0341 q 0.0341,-0.44278 0.22993,-1.17519 l 2.49518,-9.40166 z"
         style="font-style:normal;font-variant:normal;font-weight:normal;font-stretch:normal;font-size:232.91107178px;line-height:1.25;font-family:'Segoe UI';-inkscape-font-specification:'Segoe UI';text-align:start;letter-spacing:-1.74483502px;word-spacing:0px;text-anchor:start;vector-effect:none;fill:#787878;fill-opacity:1;stroke:#787878;stroke-width:0.23805504;stroke-linecap:butt;stroke-linejoin:miter;stroke-miterlimit:4;stroke-dasharray:none;stroke-dashoffset:0;stroke-opacity:1"
         id="path2360"
         inkscape:connector-curvature="0" />
      <path
         d="m 373.18965,205.92178 h -1.58397 l -1.29443,-3.42343 h -5.17771 l -1.21778,3.42343 h -1.59249 l 4.68378,-12.21196 h 1.48178 z m -3.34678,-4.70937 -1.91609,-5.20321 q -0.0937,-0.25549 -0.18735,-0.81755 h -0.0341 q -0.0852,0.51945 -0.19586,0.81755 l -1.89907,5.20321 z"
         style="font-style:normal;font-variant:normal;font-weight:normal;font-stretch:normal;font-size:232.91107178px;line-height:1.25;font-family:'Segoe UI';-inkscape-font-specification:'Segoe UI';text-align:end;letter-spacing:98.18041229px;word-spacing:0px;text-anchor:end;vector-effect:none;fill:#787878;fill-opacity:1;stroke:#787878;stroke-width:0.23805504;stroke-linecap:butt;stroke-linejoin:miter;stroke-miterlimit:4;stroke-dasharray:none;stroke-dashoffset:0;stroke-opacity:1"
         id="path2362"
         inkscape:connector-curvature="0" />
      <path
         d="m 390.21568,193.70982 -4.52198,12.21196 h -1.57546 l -4.4283,-12.21196 h 1.59249 l 3.38084,9.68269 q 0.1618,0.46838 0.24696,1.08151 h 0.0341 q 0.0681,-0.51092 0.28103,-1.09851 l 3.44897,-9.66569 z"
         style="font-style:normal;font-variant:normal;font-weight:normal;font-stretch:normal;font-size:232.91107178px;line-height:1.25;font-family:'Segoe UI';-inkscape-font-specification:'Segoe UI';text-align:end;letter-spacing:98.18041229px;word-spacing:0px;text-anchor:end;vector-effect:none;fill:#787878;fill-opacity:1;stroke:#787878;stroke-width:0.23805504;stroke-linecap:butt;stroke-linejoin:miter;stroke-miterlimit:4;stroke-dasharray:none;stroke-dashoffset:0;stroke-opacity:1"
         id="path2364"
         inkscape:connector-curvature="0" />
      <path
         d="m 405.79399,205.92178 h -6.47214 v -12.21196 h 6.19963 v 1.29447 h -4.76894 v 4.06209 h 4.41127 v 1.28594 h -4.41127 v 4.27498 h 5.04145 z"
         style="font-style:normal;font-variant:normal;font-weight:normal;font-stretch:normal;font-size:232.91107178px;line-height:1.25;font-family:'Segoe UI';-inkscape-font-specification:'Segoe UI';text-align:end;letter-spacing:98.18041229px;word-spacing:0px;text-anchor:end;vector-effect:none;fill:#787878;fill-opacity:1;stroke:#787878;stroke-width:0.23805504;stroke-linecap:butt;stroke-linejoin:miter;stroke-miterlimit:4;stroke-dasharray:none;stroke-dashoffset:0;stroke-opacity:1"
         id="path2366"
         inkscape:connector-curvature="0" />
      <path
         d="m 320.4563,225.98087 h -1.70564 v -6.63979 h -7.5332 v 6.63979 h -1.70563 v -14.55884 h 1.70563 v 6.38598 h 7.5332 v -6.38598 h 1.70564 z"
         style="font-style:normal;font-variant:normal;font-weight:normal;font-stretch:normal;font-size:232.91107178px;line-height:1.25;font-family:'Segoe UI';-inkscape-font-specification:'Segoe UI';text-align:start;letter-spacing:-1.74483502px;word-spacing:0px;text-anchor:start;vector-effect:none;fill:#787878;fill-opacity:1;stroke:#787878;stroke-width:0.28380421;stroke-linecap:butt;stroke-linejoin:miter;stroke-miterlimit:4;stroke-dasharray:none;stroke-dashoffset:0;stroke-opacity:1"
         id="path2345"
         inkscape:connector-curvature="0" />
      <path
         d="m 333.05103,225.98087 h -7.71595 v -14.55884 h 7.39106 v 1.54324 h -5.68543 v 4.84274 h 5.25902 v 1.53307 h -5.25902 v 5.09654 h 6.01032 z"
         style="font-style:normal;font-variant:normal;font-weight:normal;font-stretch:normal;font-size:232.91107178px;line-height:1.25;font-family:'Segoe UI';-inkscape-font-specification:'Segoe UI';text-align:start;letter-spacing:11.6622591px;word-spacing:0px;text-anchor:start;vector-effect:none;fill:#787878;fill-opacity:1;stroke:#787878;stroke-width:0.28380421;stroke-linecap:butt;stroke-linejoin:miter;stroke-miterlimit:4;stroke-dasharray:none;stroke-dashoffset:0;stroke-opacity:1"
         id="path2347"
         inkscape:connector-curvature="0" />
      <path
         d="M 346.94528,225.98087 H 344.864 l -3.35034,-5.57379 q -0.15229,-0.2538 -0.33504,-0.72078 h -0.0406 q -0.10152,0.23344 -0.34519,0.72078 l -3.45186,5.57379 h -2.09143 l 4.87322,-7.32004 -4.48742,-7.2388 h 2.09143 l 2.97469,5.11689 q 0.29443,0.50769 0.51778,1.01529 h 0.0406 q 0.32488,-0.67007 0.56854,-1.05582 l 3.09653,-5.07636 h 1.95944 l -4.57881,7.21853 z"
         style="font-style:normal;font-variant:normal;font-weight:normal;font-stretch:normal;font-size:232.91107178px;line-height:1.25;font-family:'Segoe UI';-inkscape-font-specification:'Segoe UI';text-align:start;letter-spacing:11.6622591px;word-spacing:0px;text-anchor:start;vector-effect:none;fill:#787878;fill-opacity:1;stroke:#787878;stroke-width:0.28380421;stroke-linecap:butt;stroke-linejoin:miter;stroke-miterlimit:4;stroke-dasharray:none;stroke-dashoffset:0;stroke-opacity:1"
         id="path2349"
         inkscape:connector-curvature="0" />
      <path
         d="m 361.46899,225.98087 h -1.88838 l -1.54318,-4.08134 h -6.17276 l -1.45181,4.08134 h -1.89853 l 5.5839,-14.55884 h 1.76655 z m -3.98996,-5.61441 -2.28432,-6.20316 q -0.11168,-0.30459 -0.22336,-0.97467 h -0.0406 q -0.10153,0.61928 -0.2335,0.97467 l -2.26402,6.20316 z"
         style="font-style:normal;font-variant:normal;font-weight:normal;font-stretch:normal;font-size:232.91107178px;line-height:1.25;font-family:'Segoe UI';-inkscape-font-specification:'Segoe UI';text-align:start;letter-spacing:11.6622591px;word-spacing:0px;text-anchor:start;vector-effect:none;fill:#787878;fill-opacity:1;stroke:#787878;stroke-width:0.28380421;stroke-linecap:butt;stroke-linejoin:miter;stroke-miterlimit:4;stroke-dasharray:none;stroke-dashoffset:0;stroke-opacity:1"
         id="path2351"
         inkscape:connector-curvature="0" />
      <path
         d="m 366.34778,220.47814 v 5.50273 h -1.70563 v -14.55884 h 4.00011 q 2.33509,0 3.61431,1.13714 1.28937,1.13706 1.28937,3.20817 0,2.07111 -1.43151,3.391 -1.42136,1.3198 -3.84782,1.3198 z m 0,-7.51287 v 5.96971 h 1.78685 q 1.76654,0 2.69043,-0.80211 0.93403,-0.81219 0.93403,-2.28429 0,-2.88331 -3.41126,-2.88331 z"
         style="font-style:normal;font-variant:normal;font-weight:normal;font-stretch:normal;font-size:232.91107178px;line-height:1.25;font-family:'Segoe UI';-inkscape-font-specification:'Segoe UI';text-align:start;letter-spacing:11.6622591px;word-spacing:0px;text-anchor:start;vector-effect:none;fill:#787878;fill-opacity:1;stroke:#787878;stroke-width:0.28380421;stroke-linecap:butt;stroke-linejoin:miter;stroke-miterlimit:4;stroke-dasharray:none;stroke-dashoffset:0;stroke-opacity:1"
         id="path2353"
         inkscape:connector-curvature="0" />
      <path
         d="m 383.20658,226.22449 q -3.09654,0 -4.96461,-2.04067 -1.85792,-2.04067 -1.85792,-5.30981 0,-3.51276 1.89853,-5.60414 1.89853,-2.09147 5.16766,-2.09147 3.0153,0 4.85292,2.0305 1.84777,2.03058 1.84777,5.30981 0,3.56356 -1.88838,5.63467 -1.88838,2.07111 -5.05597,2.07111 z m 0.12183,-13.50293 q -2.29448,0 -3.72599,1.65493 -1.43152,1.65483 -1.43152,4.34531 0,2.69039 1.39091,4.33514 1.40105,1.63457 3.64477,1.63457 2.396,0 3.77675,-1.56351 1.38075,-1.56351 1.38075,-4.37576 0,-2.8833 -1.34014,-4.45699 -1.34014,-1.57369 -3.69553,-1.57369 z"
         style="font-style:normal;font-variant:normal;font-weight:normal;font-stretch:normal;font-size:232.91107178px;line-height:1.25;font-family:'Segoe UI';-inkscape-font-specification:'Segoe UI';text-align:start;letter-spacing:11.6622591px;word-spacing:0px;text-anchor:start;vector-effect:none;fill:#787878;fill-opacity:1;stroke:#787878;stroke-width:0.28380421;stroke-linecap:butt;stroke-linejoin:miter;stroke-miterlimit:4;stroke-dasharray:none;stroke-dashoffset:0;stroke-opacity:1"
         id="path2355"
         inkscape:connector-curvature="0" />
      <path
         d="m 394.05506,225.98087 v -14.55884 h 4.02042 q 7.69564,0 7.69564,7.09668 0,3.37064 -2.14219,5.42149 -2.13204,2.04067 -5.71589,2.04067 z m 1.70563,-13.0156 v 11.47235 h 2.17265 q 2.86302,0 4.45698,-1.53298 1.59395,-1.53307 1.59395,-4.34531 0,-5.59406 -5.9494,-5.59406 z"
         style="font-style:normal;font-variant:normal;font-weight:normal;font-stretch:normal;font-size:232.91107178px;line-height:1.25;font-family:'Segoe UI';-inkscape-font-specification:'Segoe UI';text-align:start;letter-spacing:11.6622591px;word-spacing:0px;text-anchor:start;vector-effect:none;fill:#787878;fill-opacity:1;stroke:#787878;stroke-width:0.28380421;stroke-linecap:butt;stroke-linejoin:miter;stroke-miterlimit:4;stroke-dasharray:none;stroke-dashoffset:0;stroke-opacity:1"
         id="path2357"
         inkscape:connector-curvature="0" />
    </g>
  </g>
</svg>
